<?xml version="1.0" encoding="UTF-8"?>
<svg width="1200pt" height="1200pt" version="1.1" viewBox="0 0 1200 1200" xmlns="http://www.w3.org/2000/svg">
 <path d="m367.56 370.59h497.12c185.2 0 335.32 150.09 335.32 335.29 0 185.2-150.1 335.29-335.36 335.29h-829.35c-19.492 0-35.293-15.801-35.293-35.293 0-19.492 15.801-35.293 35.293-35.293h829.35c146.28 0 264.77-118.49 264.77-264.71 0-146.21-118.51-264.71-264.73-264.71h-497.12l151.52 151.52c13.785 13.781 13.785 36.129 0 49.914-13.781 13.781-36.129 13.781-49.914 0l-211.77-211.77c-13.781-13.785-13.781-36.133 0-49.914l211.77-211.77c13.785-13.781 36.133-13.781 49.914 0 13.785 13.785 13.785 36.133 0 49.914zm-95.543-151.52-186.81 186.81 186.81 186.81c13.781 13.781 13.781 36.129 0 49.914-13.785 13.781-36.129 13.781-49.914 0l-211.77-211.77c-13.781-13.785-13.781-36.133 0-49.914l211.77-211.77c13.785-13.781 36.129-13.781 49.914 0 13.781 13.785 13.781 36.133 0 49.914z"/>
</svg>
