<?xml version="1.0" encoding="UTF-8"?>
<svg width="1200pt" height="1200pt" version="1.1" viewBox="0 0 1200 1200" xmlns="http://www.w3.org/2000/svg">
 <path d="m600 1137.5c-111.14 0.20703-219.61-34.043-310.48-98.035-90.871-63.988-159.67-154.58-196.93-259.29-37.258-104.71-41.137-218.39-11.109-325.4 30.031-107.01 92.492-202.07 178.79-272.11 86.293-70.043 192.18-111.61 303.07-118.98s221.35 19.816 316.16 77.816c8.1758 5.0742 14.055 13.133 16.387 22.465 2.3359 9.3359 0.94141 19.211-3.8867 27.535-5.1562 8.0781-13.215 13.875-22.512 16.199-9.3008 2.3242-19.137 1-27.488-3.6992-87.07-53.387-189.38-76.418-290.92-65.492-101.55 10.93-196.61 55.195-270.33 125.88s-121.94 163.81-137.11 264.81c-15.18 101 3.5391 204.18 53.223 293.41 49.688 89.234 127.54 159.49 221.39 199.78 93.852 40.289 198.41 48.348 297.32 22.91 98.914-25.438 186.61-82.938 249.38-163.5 62.77-80.57 97.074-179.66 97.547-281.8-0.003906-28.379-2.8516-56.688-8.5-84.5-1.9219-9.8047 0.097656-19.977 5.6172-28.305 5.5234-8.3281 14.102-14.148 23.883-16.195 9.7461-1.9102 19.852 0.12109 28.102 5.6523 8.2461 5.5312 13.965 14.105 15.898 23.848 6.6836 32.914 10.035 66.414 10 100-0.26562 142.43-56.996 278.94-157.75 379.6-100.76 100.66-237.32 157.27-379.75 157.4zm15.5-384 480-479.5c7.0234-7.0312 10.969-16.562 10.969-26.5s-3.9453-19.469-10.969-26.5c-6.9648-7.1484-16.52-11.18-26.5-11.18s-19.535 4.0312-26.5 11.18l-453.5 453-193.5-193.5c-6.9648-7.1484-16.52-11.18-26.5-11.18s-19.535 4.0312-26.5 11.18c-7.0234 7.0312-10.969 16.562-10.969 26.5s3.9453 19.469 10.969 26.5l220 220c6.9961 7.082 16.547 11.047 26.5 11 9.9883 0.22656 19.609-3.7695 26.5-11z" fill="#63cc70"/>
</svg>
