<?xml version="1.0" encoding="UTF-8"?>
<svg width="1200pt" height="1200pt" version="1.1" viewBox="0 0 1200 1200" xmlns="http://www.w3.org/2000/svg">
 <path d="m225 1111.1h182.5c20.699 0 37.5-16.801 37.5-37.5v-201c0-80.801 65.699-146.5 146.5-146.5h17c80.75 0 146.5 65.699 146.5 146.5v201c0 20.699 16.801 37.5 37.5 37.5h182.5c75.852 0 137.5-61.699 137.5-137.5v-356.5c0-35.398-13.449-69-37.898-94.898l-374.95-391.95c-52.449-55.199-146.9-55.102-199.25-0.050781l-375.15 392.15c-24.301 25.75-37.75 59.398-37.75 94.75v356.5c0 75.801 61.648 137.5 137.5 137.5zm-62.5-494c0-16.102 6.1016-31.449 17.102-43.051l375.05-392.1c23.949-25.148 66.75-25.199 90.75 0.050781l374.85 391.85c11.148 11.75 17.25 27.102 17.25 43.25v356.5c0 34.449-28.051 62.5-62.5 62.5h-145v-163.5c0-122.15-99.352-221.5-221.5-221.5h-17c-122.1 0-221.5 99.352-221.5 221.5v163.5h-145c-34.449 0-62.5-28.051-62.5-62.5z"/>
</svg>
